<?xml version="1.0" encoding="UTF-8" standalone="no"?>
<!-- Created with Inkscape (http://www.inkscape.org/) -->

<svg
   width="27.411755mm"
   height="10.915064mm"
   viewBox="0 0 27.411755 10.915064"
   version="1.1"
   id="svg1"
   inkscape:version="1.3.2 (091e20e, 2023-11-25, custom)"
   sodipodi:docname="Carma.svg"
   xmlns:inkscape="http://www.inkscape.org/namespaces/inkscape"
   xmlns:sodipodi="http://sodipodi.sourceforge.net/DTD/sodipodi-0.dtd"
   xmlns="http://www.w3.org/2000/svg"
   xmlns:svg="http://www.w3.org/2000/svg">
  <sodipodi:namedview
     id="namedview1"
     pagecolor="#ffffff"
     bordercolor="#000000"
     borderopacity="0.25"
     inkscape:showpageshadow="2"
     inkscape:pageopacity="0.0"
     inkscape:pagecheckerboard="0"
     inkscape:deskcolor="#d1d1d1"
     inkscape:document-units="mm"
     inkscape:zoom="4.3439847"
     inkscape:cx="352.67159"
     inkscape:cy="468.00349"
     inkscape:window-width="1920"
     inkscape:window-height="1051"
     inkscape:window-x="-9"
     inkscape:window-y="-9"
     inkscape:window-maximized="1"
     inkscape:current-layer="layer1" />
  <defs
     id="defs1" />
  <g
     inkscape:label="Layer 1"
     inkscape:groupmode="layer"
     id="layer1"
     transform="translate(-81.767817,-115.7219)">
    <g
       id="g1"
       style="fill:#ffffff"
       inkscape:export-filename="..\Python Projects\carma\static\images\Carma_white.svg"
       inkscape:export-xdpi="1897.6968"
       inkscape:export-ydpi="1897.6968">
      <path
         d="m 94.992156,121.10288 c -0.334486,0 -0.627119,0.0758 -0.877982,0.22738 -0.245638,0.14633 -0.449316,0.35506 -0.611333,0.62683 v -0.80718 H 92.27966 v 4.70359 h 1.364258 v -2.12442 c 0,-0.47038 0.12029,-0.83125 0.360703,-1.08211 0.24041,-0.25609 0.556286,-0.38395 0.948261,-0.38395 0.125433,0 0.238147,0.0157 0.337447,0.047 z"
         style="font-weight:bold;font-size:11.2889px;font-family:Afacad;-inkscape-font-specification:'Afacad, Bold';fill:#ffffff;fill-opacity:1;stroke-width:3.5;stroke-linecap:square"
         id="path10" />
      <path
         d="m 106.25376,121.10288 c -0.47904,0 -0.91494,0.1239 -1.3074,0.37207 -0.39246,0.24241 -0.70724,0.57172 -0.94387,0.98727 -0.23087,0.41555 -0.34583,0.87432 -0.34583,1.37644 0,0.50212 0.11496,0.9609 0.34583,1.37645 0.23663,0.40977 0.55141,0.73851 0.94387,0.98668 0.39246,0.24818 0.82836,0.37265 1.3074,0.37265 0.33475,0 0.6406,-0.0581 0.91764,-0.17349 0.27702,-0.12119 0.51368,-0.28527 0.7099,-0.49305 v 0.52787 h 1.29827 v -5.19421 h -1.29827 v 0.52786 c -0.19622,-0.20777 -0.43288,-0.36906 -0.7099,-0.48449 -0.27704,-0.1212 -0.58289,-0.18205 -0.91764,-0.18205 z m 0.18147,1.32452 c 0.25395,0 0.48503,0.0636 0.69279,0.1906 0.20779,0.12698 0.37243,0.2972 0.49363,0.51076 0.12697,0.21354 0.19004,0.45018 0.19004,0.7099 0,0.25972 -0.0631,0.49637 -0.19004,0.70992 -0.1212,0.21355 -0.28584,0.38378 -0.49363,0.51074 -0.20776,0.12697 -0.43884,0.1906 -0.69279,0.1906 -0.25394,0 -0.48445,-0.0636 -0.69221,-0.1906 -0.20778,-0.12696 -0.37522,-0.29719 -0.5022,-0.51074 -0.12119,-0.21355 -0.18203,-0.4502 -0.18203,-0.70992 0,-0.25972 0.0609,-0.49636 0.18203,-0.7099 0.12698,-0.21356 0.29442,-0.38378 0.5022,-0.51076 0.20776,-0.12697 0.43827,-0.1906 0.69221,-0.1906 z"
         style="font-weight:bold;font-size:11.2889px;font-family:Afacad;-inkscape-font-specification:'Afacad, Bold';fill:#ffffff;fill-opacity:1;stroke-width:3.86508;stroke-linecap:square"
         id="path9" />
      <path
         d="m 89.209351,121.10288 c -0.433787,0 -0.828516,0.1122 -1.183907,0.33693 -0.355391,0.21951 -0.639932,0.51771 -0.854212,0.89401 -0.209053,0.3763 -0.313676,0.79174 -0.313676,1.24643 0,0.45469 0.104623,0.87014 0.313676,1.24644 0.21428,0.37106 0.498821,0.66875 0.854212,0.89348 0.355391,0.22474 0.75012,0.33745 1.183907,0.33745 0.303127,0 0.580092,-0.0526 0.830957,-0.1571 0.250863,-0.10975 0.465159,-0.25833 0.642854,-0.44648 v 0.47801 h 1.176156 v -4.70359 h -1.176156 v 0.478 c -0.177695,-0.18814 -0.391991,-0.3342 -0.642854,-0.43873 -0.250865,-0.10975 -0.52783,-0.16485 -0.830957,-0.16485 z m 0.164847,1.19941 c 0.229959,0 0.438687,0.0576 0.626836,0.1726 0.188147,0.11498 0.337247,0.26913 0.447001,0.46251 0.11498,0.19337 0.172599,0.40766 0.172599,0.64285 0,0.23519 -0.05762,0.44948 -0.172599,0.64286 -0.109754,0.19338 -0.258854,0.34753 -0.447001,0.4625 -0.188149,0.11498 -0.396877,0.1726 -0.626836,0.1726 -0.229959,0 -0.439204,-0.0576 -0.627351,-0.1726 -0.188149,-0.11497 -0.339774,-0.26912 -0.454753,-0.4625 -0.109753,-0.19338 -0.164331,-0.40767 -0.164331,-0.64286 0,-0.23519 0.05458,-0.44948 0.164331,-0.64285 0.114979,-0.19338 0.266604,-0.34753 0.454753,-0.46251 0.188147,-0.11498 0.397392,-0.1726 0.627351,-0.1726 z"
         style="font-weight:bold;font-size:11.2889px;font-family:Afacad;-inkscape-font-specification:'Afacad, Bold';fill:#ffffff;fill-opacity:1;stroke-width:3.5;stroke-linecap:square"
         id="path8" />
      <path
         d="m 84.569338,121.10288 c -0.513057,0 -0.983011,0.12375 -1.409598,0.37164 -0.426588,0.24788 -0.766645,0.58236 -1.020292,1.00318 -0.247883,0.41507 -0.371638,0.87888 -0.371638,1.39193 0,0.5073 0.123755,0.97111 0.371638,1.39193 0.253647,0.42084 0.593704,0.75531 1.020292,1.00319 0.426587,0.24789 0.896541,0.37221 1.409598,0.37221 0.357412,0 0.694684,-0.058 1.011743,-0.17327 0.322823,-0.12107 0.608251,-0.29667 0.856133,-0.52725 L 86.047907,124.406 c -0.144118,0.23636 -0.336999,0.44372 -0.579116,0.62243 -0.236352,0.17294 -0.51621,0.25935 -0.839033,0.25935 -0.270941,0 -0.51288,-0.0635 -0.726175,-0.19038 -0.213293,-0.12682 -0.380537,-0.29685 -0.501595,-0.51014 -0.121059,-0.21906 -0.181829,-0.45821 -0.181829,-0.71763 0,-0.26517 0.06078,-0.50432 0.181829,-0.71762 0.121058,-0.21329 0.288302,-0.38332 0.501595,-0.51015 0.213295,-0.12682 0.455234,-0.19038 0.726175,-0.19038 0.322823,0 0.602681,0.0892 0.839033,0.2679 0.242117,0.17294 0.434998,0.37754 0.579116,0.61389 l 0.389307,-1.53044 c -0.247882,-0.23059 -0.53331,-0.40341 -0.856133,-0.51869 -0.317059,-0.12107 -0.654331,-0.18126 -1.011743,-0.18126 z"
         style="font-weight:bold;font-size:11.2889px;font-family:Afacad;-inkscape-font-specification:'Afacad, Bold';fill:#ffffff;fill-opacity:1;stroke-width:3.86053;stroke-linecap:square"
         id="path7" />
      <path
         d="m 98.336869,121.10288 c -0.27177,0 -0.533067,0.0576 -0.783932,0.1726 -0.245638,0.11498 -0.452358,0.28227 -0.6196,0.50178 v -0.51728 h -1.222665 v 4.70359 h 1.363741 v -2.697 c 0,-0.20905 0.03943,-0.3814 0.117823,-0.51728 0.08362,-0.14111 0.190769,-0.24573 0.321427,-0.31367 0.135885,-0.0732 0.276892,-0.10956 0.42323,-0.10956 0.182922,0 0.337072,0.0445 0.462504,0.13333 0.130661,0.0889 0.227192,0.20661 0.289905,0.35295 0.06794,0.14634 0.102319,0.30301 0.102319,0.47025 v 2.68098 h 1.363749 v -2.697 c 0,-0.20905 0.0394,-0.3814 0.11782,-0.51728 0.0836,-0.14111 0.19077,-0.24573 0.32143,-0.31367 0.13588,-0.0732 0.27689,-0.10956 0.42323,-0.10956 0.27699,0 0.48876,0.0965 0.6351,0.28991 0.14634,0.19338 0.21963,0.41576 0.21963,0.66662 v 2.68098 h 1.36374 v -2.87683 c 0,-0.42334 -0.0915,-0.78168 -0.27441,-1.07435 -0.18292,-0.2979 -0.42045,-0.5223 -0.71313,-0.67387 -0.29267,-0.15678 -0.60654,-0.23564 -0.94103,-0.23564 -0.3188,0 -0.61397,0.0576 -0.88573,0.1726 -0.27178,0.11498 -0.499215,0.28227 -0.682136,0.50178 -0.167243,-0.21951 -0.373446,-0.3868 -0.619084,-0.50178 -0.245638,-0.11498 -0.506936,-0.1726 -0.783931,-0.1726 z"
         style="font-weight:bold;font-size:11.2889px;font-family:Afacad;-inkscape-font-specification:'Afacad, Bold';fill:#ffffff;fill-opacity:1;stroke-width:3.5;stroke-linecap:square"
         id="path6" />
      <path
         style="color:#000000;fill:#ffffff;fill-opacity:1;stroke-linecap:round;-inkscape-stroke:none"
         d="m 95.001953,115.72266 c -1.725222,0.0219 -2.694215,0.95451 -3.636719,1.90429 -0.942503,0.94978 -1.931611,1.9656 -3.996093,2.59766 -0.920353,0.28177 -3.509766,0.94141 -3.509766,0.94141 a 0.5,0.5 0 0 0 -0.361328,0.60742 0.5,0.5 0 0 0 0.609375,0.36133 c 0,0 2.553226,-0.64848 3.554687,-0.95508 2.272758,-0.69582 3.471449,-1.89974 4.41211,-2.84766 0.94066,-0.94792 1.54872,-1.59171 2.941406,-1.60937 1.600281,-0.0203 2.696316,0.37031 3.923828,1.09179 1.227517,0.72149 2.564797,1.79111 4.496097,3.04883 0.53699,0.34971 1.46755,0.71442 2.3164,1.03516 0.84886,0.32074 1.58789,0.57031 1.58789,0.57031 a 0.5,0.5 0 0 0 0.63282,-0.31445 0.5,0.5 0 0 0 -0.31446,-0.63282 c 0,0 -0.72312,-0.24512 -1.55273,-0.55859 -0.82961,-0.31347 -1.79387,-0.72313 -2.12305,-0.9375 -1.89036,-1.23107 -3.21451,-2.29489 -4.537108,-3.07226 -1.322597,-0.77738 -2.666096,-1.253 -4.443359,-1.23047 z"
         id="path12" />
    </g>
  </g>
</svg>
